<svg id="Calque_1" data-name="Calque 1" xmlns="http://www.w3.org/2000/svg" xmlns:xlink="http://www.w3.org/1999/xlink" viewBox="0 0 820.89 336.38"><defs><style>.cls-1{fill:none;}.cls-2{fill:#fc97fc;}.cls-3{clip-path:url(#clip-path);}.cls-4{fill:url(#Dégradé_sans_nom_2);}.cls-5{fill:#2c2c82;}</style><clipPath id="clip-path"><path class="cls-1" d="M0,98A71.72,71.72,0,1,0,71.72,26.29,71.72,71.72,0,0,0,0,98"/></clipPath><radialGradient id="Dégradé_sans_nom_2" cx="-118.36" cy="1571.52" r="1" gradientTransform="matrix(71.72, 0, 0, -71.72, 8560.72, 112806.57)" gradientUnits="userSpaceOnUse"><stop offset="0" stop-color="#fff"/><stop offset="0.51" stop-color="#fdfdfd"/><stop offset="0.7" stop-color="#f6f6f6"/><stop offset="0.83" stop-color="#ebebeb"/><stop offset="0.94" stop-color="#dadada"/><stop offset="1" stop-color="#ccc"/></radialGradient></defs><title>etape1_titre</title><path class="cls-2" d="M217.47,106.29h21.14V139c0,15.24-5.14,30.67-25.71,30.67h-4.76c-21.9,0-26.48-15.62-26.48-29.9V53.33c0-14.48,6.29-28.38,25.71-28.38h5c23.62,0,26.29,15.62,26.29,29.52V79.81H217.47v-25c0-6.1-1.9-9.33-7.24-9.33s-6.67,3-6.67,9.33V139q0,9.71,6.86,9.71c5.14,0,7-3.62,7-9.52Z"/><path class="cls-2" d="M267.75,168H246.23V26.29h21.52V83h14.67V26.29h21.52V168H282.42V105.71H267.75Z"/><path class="cls-2" d="M371,136.38c0,19.81-6.67,33.33-27.43,33.33h-3.62c-20.57,0-27.81-13.52-27.81-33.33V57.52c0-19.81,7.24-32.57,27.62-32.57h3.62c21,0,27.62,13,27.62,32.38Zm-21.9-80q0-10.86-7.43-10.86c-5.52,0-7.62,3.43-7.62,10.86V137.9c0,6.1,1.71,10.86,7.81,10.86,5.9,0,7.24-4.76,7.24-10.86Z"/><path class="cls-2" d="M400.71,168H379.18V26.29h21.52Z"/><path class="cls-2" d="M439.37,25c17.71,0,24.57,7.81,24.57,24.57V72.76H443.18V52.38c0-4.76-1-8.38-6.09-8.38s-6.29,3.24-6.29,9.9v2.67c0,8,1.52,12.38,8.76,21.71L453.28,96C463,108.57,466,115.62,466,131.81v4.57c0,20.76-8.76,33.14-27.81,33.14H434c-17.33,0-26.29-9.33-26.29-26.86V114.29h21.33V139c0,6.67,2.29,9.9,7,9.9,5.14,0,7-3.24,7-12.19v-3.24c0-10.29-1-13.52-8.76-23.81L420.7,92.19c-9.14-11.81-11.81-21-11.81-35V52.57c0-19,9.52-27.62,26.48-27.62Z"/><path class="cls-2" d="M494.42,168H472.89V26.29h21.52Z"/><path class="cls-2" d="M533.08,25c17.71,0,24.57,7.81,24.57,24.57V72.76H536.89V52.38c0-4.76-1-8.38-6.09-8.38s-6.29,3.24-6.29,9.9v2.67c0,8,1.52,12.38,8.76,21.71L547,96c9.71,12.57,12.76,19.62,12.76,35.81v4.57c0,20.76-8.76,33.14-27.81,33.14h-4.19c-17.33,0-26.29-9.33-26.29-26.86V114.29H522.8V139c0,6.67,2.29,9.9,7,9.9,5.14,0,7-3.24,7-12.19v-3.24c0-10.29-1-13.52-8.76-23.81L514.42,92.19c-9.14-11.81-11.81-21-11.81-35V52.57c0-19,9.52-27.62,26.48-27.62Z"/><path class="cls-2" d="M619.18,141.33H603.37L600.7,168H581.46L598.79,26.29h25.52L642.79,168H622ZM603,20.76,594.6,0h17.91l8,20.76Zm2.67,99.43h11.24l-5.71-52.38Z"/><path class="cls-2" d="M724.69,136.38c0,17.33-5.14,29.71-20.19,32.57l9.91,28.57H688.7V169.33c-16.76-2.1-22.86-14.67-22.86-33V57.52c0-19.81,7.24-32.57,27.62-32.57h3.62c21,0,27.62,13,27.62,32.38Zm-21.9-80q0-10.86-7.43-10.86c-5.52,0-7.62,3.43-7.62,10.86V137.9c0,6.1,1.71,10.86,7.81,10.86,5.91,0,7.24-4.76,7.24-10.86Z"/><path class="cls-2" d="M732.51,26.29h21.9V138.48c0,6.1,2.1,10.1,6.86,10.1,5.14,0,7-3.81,7-10.1V26.29h21.9V137.14c0,20-8,32.57-27,32.57h-3.81c-19,0-26.86-12-26.86-32.57Z"/><path class="cls-2" d="M820.12,168H798.6V26.29h21.52Z"/><path class="cls-2" d="M62.25,193v20.57H44.15V334.67H22.82V213.53H4.72V193Z"/><path class="cls-2" d="M68,193h21.9V305.14c0,6.1,2.1,10.1,6.86,10.1,5.14,0,7-3.81,7-10.1V193h21.9V303.81c0,20-8,32.57-27,32.57H94.82c-19,0-26.86-12-26.86-32.57Z"/><path class="cls-2" d="M149.29,193h21.9l9.71,97.52,9.9-97.52h20.38l-17.9,141.71h-26.1Z"/><path class="cls-2" d="M264.72,193v20.57H237.29v37.14h21.52v21.52H237.29v41h28.57v21.52h-50.1V193Z"/><path class="cls-2" d="M271.76,193h21.9V305.14c0,6.1,2.1,10.1,6.86,10.1,5.14,0,7-3.81,7-10.1V193h21.9V303.81c0,20-8,32.57-27,32.57h-3.81c-19,0-26.86-12-26.86-32.57Z"/><path class="cls-2" d="M334.81,193h21.9l9.14,44.76L374.62,193h21l-16.19,65.9,18.29,75.81H375.38l-10.67-51.24-10.86,51.24H332.14l18.67-75.81Z"/><path class="cls-2" d="M442.8,275.81v58.86H421.28V193h34.09c15.24,0,22.1,6.48,22.1,23.43v33.52c0,16.76-7.43,25.9-22.1,25.9Zm0-20.38h5.52c6.67,0,7.43-4.38,7.43-10.29V221.91c0-5.52-1.14-9.71-7.43-9.71H442.8Z"/><path class="cls-2" d="M512.14,308H496.33l-2.67,26.67H474.42L491.76,193h25.52l18.48,141.71H515Zm-13.52-21.14h11.24l-5.71-52.38Z"/><path class="cls-2" d="M561.47,334.67H539.94V193H574.8c14.48,0,21.52,5.9,21.52,21.9V240c0,11.81-5.52,16.57-9.33,18.1,4.76,2.1,9.33,5.71,9.33,15.43v49.71c0,5.9,1.14,8.38,2.09,10.48v1H577.09c-1-1.52-2.09-4-2.09-11.62V280.38c0-6.29-1.14-9-8-9h-5.52Zm0-83.43h5.71c5.9,0,7.81-3.81,7.81-10.1V221.33c0-6.1-1.14-9.14-7.81-9.14h-5.71Z"/><path class="cls-2" d="M626,193V312.76h26.29v21.9H604.51V193Z"/><path class="cls-2" d="M707.56,193v20.57H680.13v37.14h21.52v21.52H680.13v41H708.7v21.52H658.61V193Z"/><path class="cls-2" d="M736.51,334.67H715V193h34.86c14.48,0,21.52,5.9,21.52,21.9V240c0,11.81-5.52,16.57-9.33,18.1,4.76,2.1,9.33,5.71,9.33,15.43v49.71c0,5.9,1.14,8.38,2.09,10.48v1H752.13c-1-1.52-2.09-4-2.09-11.62V280.38c0-6.29-1.14-9-8-9h-5.52Zm0-83.43h5.71c5.9,0,7.81-3.81,7.81-10.1V221.33c0-6.1-1.14-9.14-7.81-9.14h-5.71Z"/><path class="cls-2" d="M820.89,193l-8.38,112.57h-7L797.27,193Zm-2.09,141.71H799V310.29h19.81Z"/><g class="cls-3"><rect class="cls-4" y="26.29" width="143.44" height="143.44"/></g><path class="cls-5" d="M44.14,95.58,46.74,79C59.34,78.3,67,73.53,71.31,64.53h28l-10.62,67H55.38l5.67-35.91Z"/></svg>